<svg id="Layer_1" data-name="Layer 1" xmlns="http://www.w3.org/2000/svg" xmlns:xlink="http://www.w3.org/1999/xlink" viewBox="0 0 359.3 111.62"><defs><style>.cls-1{fill:#231f20;}.cls-2{fill:#f57e20;}.cls-3{fill:url(#radial-gradient);}.cls-4{fill:url(#radial-gradient-2);}.cls-5{fill:#414042;}.cls-6{fill:url(#radial-gradient-3);}.cls-7{fill:url(#radial-gradient-4);}</style><radialGradient id="radial-gradient" cx="180.51" cy="339.81" r="55.81" gradientUnits="userSpaceOnUse"><stop offset="0" stop-color="#fff"/><stop offset="0.02" stop-color="#f26522"/></radialGradient><radialGradient id="radial-gradient-2" cx="180.51" cy="339.81" r="51.42" xlink:href="#radial-gradient"/><radialGradient id="radial-gradient-3" cx="311.92" cy="274.56" r="12.31" gradientTransform="translate(-23.57 -58.84) rotate(19.57)" xlink:href="#radial-gradient"/><radialGradient id="radial-gradient-4" cx="317.04" cy="276.66" r="5.39" gradientTransform="translate(-23.57 -58.84) rotate(19.57)" xlink:href="#radial-gradient"/></defs><path class="cls-1" d="M265.19,371.19h-1V363.6H261.3v-.94H268v.94h-2.85Z" transform="translate(-124.7 -284)"/><path class="cls-1" d="M271.74,365.93h-.07a3.84,3.84,0,0,0-.69.07,3.18,3.18,0,0,0-.64.19,3.11,3.11,0,0,0-.53.32,1.77,1.77,0,0,0-.4.46v4.22h-1v-6.06h.77l.19,1h0a2.89,2.89,0,0,1,.36-.44,2.47,2.47,0,0,1,.48-.35,2.6,2.6,0,0,1,.59-.24,2.39,2.39,0,0,1,.66-.09h.25Z" transform="translate(-124.7 -284)"/><path class="cls-1" d="M275.2,371.35a3.13,3.13,0,0,1-.85-.11,2.19,2.19,0,0,1-.66-.28,1.88,1.88,0,0,1-.48-.45,2.05,2.05,0,0,1-.31-.56,1.93,1.93,0,0,1-.13-.5,3.86,3.86,0,0,1,0-.6v-3.72h1v3.71a2.25,2.25,0,0,0,.13.84,1.18,1.18,0,0,0,.5.6,1.52,1.52,0,0,0,.87.22,1.54,1.54,0,0,0,.9-.24,1.33,1.33,0,0,0,.49-.65,2.44,2.44,0,0,0,.1-.77v-3.71h1v3.72a4.91,4.91,0,0,1,0,.57,3.22,3.22,0,0,1-.11.49,2.52,2.52,0,0,1-.32.58,1.92,1.92,0,0,1-.49.45,2.47,2.47,0,0,1-.68.3A3.34,3.34,0,0,1,275.2,371.35Z" transform="translate(-124.7 -284)"/><path class="cls-1" d="M280.26,366.74a.71.71,0,0,0,.1.41.81.81,0,0,0,.29.26,1.52,1.52,0,0,0,.41.16c.15.05.32.08.48.12a5.59,5.59,0,0,1,.65.17,1.93,1.93,0,0,1,.56.27,1.37,1.37,0,0,1,.42.5,1.8,1.8,0,0,1-.52,2.23,2.33,2.33,0,0,1-.78.36,3.83,3.83,0,0,1-1,.13,5.35,5.35,0,0,1-.61,0,2.62,2.62,0,0,1-.47-.09,2.22,2.22,0,0,1-.36-.11,1.38,1.38,0,0,1-.24-.11v-.83a5.87,5.87,0,0,0,.74.25,4.15,4.15,0,0,0,.82.08,3.06,3.06,0,0,0,.63-.06,1.3,1.3,0,0,0,.48-.19.87.87,0,0,0,.32-.31.9.9,0,0,0,.11-.44.75.75,0,0,0-.37-.69,1.76,1.76,0,0,0-.39-.18l-.47-.13c-.21,0-.43-.1-.65-.16a2.46,2.46,0,0,1-.59-.27,1.25,1.25,0,0,1-.44-.47,1.56,1.56,0,0,1-.16-.76,1.78,1.78,0,0,1,.17-.83,1.65,1.65,0,0,1,.46-.58,2.07,2.07,0,0,1,.68-.34,2.82,2.82,0,0,1,.83-.12,4.58,4.58,0,0,1,1.71.34v.84a5.43,5.43,0,0,0-.75-.24,4.17,4.17,0,0,0-.79-.1,2.51,2.51,0,0,0-.59.07,1.19,1.19,0,0,0-.39.2.71.71,0,0,0-.23.29A.9.9,0,0,0,280.26,366.74Z" transform="translate(-124.7 -284)"/><path class="cls-1" d="M288,371.2a2.3,2.3,0,0,1-.39.09,4.83,4.83,0,0,1-.62.06,2.55,2.55,0,0,1-.83-.12,1.44,1.44,0,0,1-.58-.34,1.26,1.26,0,0,1-.35-.53,1.94,1.94,0,0,1-.12-.7V366H284v-.85h1.16v-1.66h1v1.66h1.81V366h-1.81v3.53a1.23,1.23,0,0,0,.06.39.89.89,0,0,0,.19.31,1,1,0,0,0,.34.2,1.41,1.41,0,0,0,.49.07l.42,0,.4-.08Z" transform="translate(-124.7 -284)"/><path class="cls-1" d="M292.23,370.48a5,5,0,0,0,.9-.07,5.61,5.61,0,0,0,.8-.23V371a2.9,2.9,0,0,1-.8.25,5.51,5.51,0,0,1-1,.1,4.33,4.33,0,0,1-1.22-.17,2.45,2.45,0,0,1-1-.54,2.42,2.42,0,0,1-.66-1,4.1,4.1,0,0,1-.23-1.44,4,4,0,0,1,.23-1.44,2.9,2.9,0,0,1,.61-1,2.37,2.37,0,0,1,.87-.61,2.71,2.71,0,0,1,2,0,1.94,1.94,0,0,1,.77.53,2.9,2.9,0,0,1,.51.94,4.6,4.6,0,0,1,.19,1.38v.13s0,.12,0,.24H290a2.43,2.43,0,0,0,.18,1,1.59,1.59,0,0,0,.47.65,1.93,1.93,0,0,0,.71.37A3.17,3.17,0,0,0,292.23,370.48Zm-.52-4.66a1.45,1.45,0,0,0-.63.13,1.59,1.59,0,0,0-.52.37,1.86,1.86,0,0,0-.35.54,2,2,0,0,0-.17.66h3.1a2.09,2.09,0,0,0-.1-.67,1.52,1.52,0,0,0-.27-.54,1.39,1.39,0,0,0-.44-.36A1.38,1.38,0,0,0,291.71,365.82Z" transform="translate(-124.7 -284)"/><path class="cls-1" d="M295.5,368.24a4.15,4.15,0,0,1,.13-1.12,3.14,3.14,0,0,1,.33-.85,2.11,2.11,0,0,1,.47-.61,2.57,2.57,0,0,1,.57-.4,2.29,2.29,0,0,1,.6-.22,2.34,2.34,0,0,1,.57-.07,2.15,2.15,0,0,1,1.69.73h0V362h1v9.23h-.75l-.2-.68h0a2.32,2.32,0,0,1-.26.3,2.42,2.42,0,0,1-.36.27,2.09,2.09,0,0,1-.48.19,2.35,2.35,0,0,1-.63.08,2.91,2.91,0,0,1-1-.17,2.39,2.39,0,0,1-.86-.55,2.67,2.67,0,0,1-.6-1A4,4,0,0,1,295.5,368.24Zm1,0a3.48,3.48,0,0,0,.12.95,2.18,2.18,0,0,0,.34.72,1.48,1.48,0,0,0,.55.45,1.9,1.9,0,0,0,1.31.08,1.62,1.62,0,0,0,.46-.21,1.56,1.56,0,0,0,.34-.27,1.65,1.65,0,0,0,.23-.26v-3.17a2.23,2.23,0,0,0-.71-.5,1.9,1.9,0,0,0-.86-.19,1.78,1.78,0,0,0-.59.1,1.62,1.62,0,0,0-.58.38,2.19,2.19,0,0,0-.43.74A3.29,3.29,0,0,0,296.53,368.22Z" transform="translate(-124.7 -284)"/><path class="cls-1" d="M306.62,362.66v7.59h4.17v.94h-5.21v-8.53Z" transform="translate(-124.7 -284)"/><path class="cls-1" d="M314.65,371.35a3.11,3.11,0,0,1-.84-.11,2.09,2.09,0,0,1-.66-.28,1.88,1.88,0,0,1-.48-.45,2.08,2.08,0,0,1-.32-.56,1.93,1.93,0,0,1-.12-.5,3.86,3.86,0,0,1,0-.6v-3.72h1v3.71a2.23,2.23,0,0,0,.14.84,1.22,1.22,0,0,0,.49.6,1.56,1.56,0,0,0,.87.22,1.5,1.5,0,0,0,.9-.24,1.33,1.33,0,0,0,.49-.65,2.41,2.41,0,0,0,.11-.77v-3.71h1v3.72a3.32,3.32,0,0,1,0,.57,2.35,2.35,0,0,1-.11.49,2.16,2.16,0,0,1-.31.58,2,2,0,0,1-.5.45,2.23,2.23,0,0,1-.68.3A3.23,3.23,0,0,1,314.65,371.35Z" transform="translate(-124.7 -284)"/><path class="cls-1" d="M321,367.46l1.65-2.33h1.09l-2.21,3,2.29,3.06h-1.07L321,368.76h0l-1.74,2.43h-1.07l2.29-3.09-2.21-3h1.09l1.67,2.33Z" transform="translate(-124.7 -284)"/><path class="cls-1" d="M327.35,371.35a3.13,3.13,0,0,1-.85-.11,2.19,2.19,0,0,1-.66-.28,1.88,1.88,0,0,1-.48-.45,2.05,2.05,0,0,1-.31-.56,2.44,2.44,0,0,1-.13-.5,5.66,5.66,0,0,1,0-.6v-3.72h1v3.71a2.47,2.47,0,0,0,.13.84,1.23,1.23,0,0,0,.5.6,1.56,1.56,0,0,0,.87.22,1.54,1.54,0,0,0,.9-.24,1.33,1.33,0,0,0,.49-.65,2.41,2.41,0,0,0,.11-.77v-3.71h1v3.72a4.91,4.91,0,0,1,0,.57,3.22,3.22,0,0,1-.11.49,2.19,2.19,0,0,1-.32.58,1.92,1.92,0,0,1-.49.45,2.34,2.34,0,0,1-.68.3A3.34,3.34,0,0,1,327.35,371.35Z" transform="translate(-124.7 -284)"/><path class="cls-1" d="M335,365.93H335a3.84,3.84,0,0,0-.69.07,3.18,3.18,0,0,0-.64.19,2.76,2.76,0,0,0-.53.32,1.6,1.6,0,0,0-.4.46v4.22h-1v-6.06h.77l.19,1h0a2,2,0,0,1,.36-.44,2.47,2.47,0,0,1,.48-.35,2.72,2.72,0,0,1,.58-.24,2.52,2.52,0,0,1,.67-.09H335Z" transform="translate(-124.7 -284)"/><path class="cls-1" d="M335.31,365.13h1l1.88,4.75h0l1.93-4.75h1l-3.75,9h-1l1.3-3.09Z" transform="translate(-124.7 -284)"/><path class="cls-1" d="M347.05,369.86c.31-.93.64-1.87,1-2.82l1.64-4.38h1l-3.24,8.53h-.91l-3.23-8.53h1L346,367c.36.95.69,1.89,1,2.82Z" transform="translate(-124.7 -284)"/><path class="cls-1" d="M352,363.72v-1.1h1v1.1Zm0,7.47v-6.06h1v6.06Z" transform="translate(-124.7 -284)"/><path class="cls-1" d="M357.88,370.48a4.94,4.94,0,0,0,.89-.07,6.15,6.15,0,0,0,.81-.23V371a3.1,3.1,0,0,1-.81.25,5.43,5.43,0,0,1-1,.1,4.33,4.33,0,0,1-1.22-.17,2.51,2.51,0,0,1-1-.54,2.3,2.3,0,0,1-.65-1,3.88,3.88,0,0,1-.24-1.44,4.18,4.18,0,0,1,.23-1.44,3.06,3.06,0,0,1,.61-1,2.41,2.41,0,0,1,.88-.61,2.6,2.6,0,0,1,1-.21,2.67,2.67,0,0,1,1,.17,1.94,1.94,0,0,1,.77.53,2.57,2.57,0,0,1,.51.94,4.3,4.3,0,0,1,.19,1.38v.13s0,.12,0,.24h-4.18a2.43,2.43,0,0,0,.18,1,1.52,1.52,0,0,0,.48.65,1.85,1.85,0,0,0,.71.37A3.08,3.08,0,0,0,357.88,370.48Zm-.53-4.66a1.48,1.48,0,0,0-.63.13,1.46,1.46,0,0,0-.51.37,1.7,1.7,0,0,0-.36.54,2,2,0,0,0-.17.66h3.1a2.41,2.41,0,0,0-.09-.67,1.72,1.72,0,0,0-.28-.54A1.39,1.39,0,0,0,358,366,1.35,1.35,0,0,0,357.35,365.82Z" transform="translate(-124.7 -284)"/><path class="cls-1" d="M364.69,371.2l-.39.09a4.83,4.83,0,0,1-.62.06,2.55,2.55,0,0,1-.83-.12,1.55,1.55,0,0,1-.59-.34,1.34,1.34,0,0,1-.34-.53,1.94,1.94,0,0,1-.12-.7V366h-1.16v-.85h1.16v-1.66h1v1.66h1.81V366h-1.81v3.53a1.23,1.23,0,0,0,.06.39.77.77,0,0,0,.19.31,1,1,0,0,0,.34.2,1.41,1.41,0,0,0,.49.07l.41,0,.41-.08Z" transform="translate(-124.7 -284)"/><path class="cls-1" d="M367,366h0a3.41,3.41,0,0,1,.37-.39,2.14,2.14,0,0,1,.45-.32,2.33,2.33,0,0,1,.54-.21A2.69,2.69,0,0,1,369,365a2.5,2.5,0,0,1,.78.12,1.55,1.55,0,0,1,.63.37,1.7,1.7,0,0,1,.42.66,2.74,2.74,0,0,1,.16,1v4.06h-1v-3.9a1.72,1.72,0,0,0-.3-1.13,1.11,1.11,0,0,0-.88-.34,1.91,1.91,0,0,0-1,.28,2.67,2.67,0,0,0-.83.78v4.31h-1v-6.06h.76Z" transform="translate(-124.7 -284)"/><path class="cls-1" d="M376.45,370.52h0a1.78,1.78,0,0,1-.31.3,2.17,2.17,0,0,1-.42.27,3,3,0,0,1-.53.19,3.1,3.1,0,0,1-.62.07,2.28,2.28,0,0,1-.8-.14,1.55,1.55,0,0,1-.63-.38,1.6,1.6,0,0,1-.41-.61,2.14,2.14,0,0,1-.15-.82,1.86,1.86,0,0,1,.16-.81,1.73,1.73,0,0,1,.46-.61,2,2,0,0,1,.7-.38,2.94,2.94,0,0,1,.91-.14,5.67,5.67,0,0,1,.87.09,4.17,4.17,0,0,1,.72.19h0v-.42a2.85,2.85,0,0,0,0-.44,1.13,1.13,0,0,0-.11-.34,1.31,1.31,0,0,0-.53-.51,2.07,2.07,0,0,0-1-.2,4,4,0,0,0-.86.09,6.21,6.21,0,0,0-.81.24v-.83a2.08,2.08,0,0,1,.36-.14,3.17,3.17,0,0,1,.44-.12,3.46,3.46,0,0,1,.48-.07l.51,0a3,3,0,0,1,1.5.33,1.89,1.89,0,0,1,.84.86,1.49,1.49,0,0,1,.14.45,3,3,0,0,1,0,.54v4h-.83Zm-.05-2-.65-.15a4.11,4.11,0,0,0-.82-.07,1.57,1.57,0,0,0-1,.26,1,1,0,0,0-.36.83,1.26,1.26,0,0,0,.09.49,1,1,0,0,0,.24.34,1.23,1.23,0,0,0,.37.21,1.7,1.7,0,0,0,.46.06,1.87,1.87,0,0,0,.59-.09,2.12,2.12,0,0,0,.48-.22,2.8,2.8,0,0,0,.36-.25,2.65,2.65,0,0,0,.22-.2Z" transform="translate(-124.7 -284)"/><path class="cls-1" d="M384.25,371.19h-1v-3.9a2.17,2.17,0,0,0-.09-.67,1.14,1.14,0,0,0-.25-.46.92.92,0,0,0-.38-.26,1.65,1.65,0,0,0-.51-.08,1.71,1.71,0,0,0-1,.28,2.89,2.89,0,0,0-.78.78v4.31h-1v-6.06h.77l.19.84h0a3.33,3.33,0,0,1,.36-.39,2.29,2.29,0,0,1,.43-.32,2.25,2.25,0,0,1,.53-.21,2.45,2.45,0,0,1,.62-.08,1.84,1.84,0,0,1,1.12.33,2,2,0,0,1,.69.88h0a3.24,3.24,0,0,1,.92-.89,2.24,2.24,0,0,1,1.2-.32,2.83,2.83,0,0,1,.68.09,1.71,1.71,0,0,1,.66.33,1.78,1.78,0,0,1,.49.66,2.42,2.42,0,0,1,.2,1.08v4.06h-1v-3.9a2.56,2.56,0,0,0-.08-.67,1.27,1.27,0,0,0-.25-.46,1,1,0,0,0-.39-.26,1.6,1.6,0,0,0-.51-.08,1.71,1.71,0,0,0-1,.28,2.89,2.89,0,0,0-.78.78Z" transform="translate(-124.7 -284)"/><path class="cls-1" d="M393.9,366.35h4.46v-3.69h1v8.53h-1v-3.9H393.9v3.9h-1v-8.53h1Z" transform="translate(-124.7 -284)"/><path class="cls-1" d="M405,370.52h0a1.78,1.78,0,0,1-.31.3,2.17,2.17,0,0,1-.42.27,2.76,2.76,0,0,1-.53.19,3,3,0,0,1-.61.07,2.29,2.29,0,0,1-.81-.14,1.69,1.69,0,0,1-.63-.38,1.73,1.73,0,0,1-.41-.61,2.14,2.14,0,0,1-.15-.82,2,2,0,0,1,.16-.81,1.73,1.73,0,0,1,.46-.61,2.06,2.06,0,0,1,.7-.38,2.94,2.94,0,0,1,.91-.14,5.81,5.81,0,0,1,.88.09,4.3,4.3,0,0,1,.71.19h0v-.42a2.85,2.85,0,0,0,0-.44.91.91,0,0,0-.11-.34,1.34,1.34,0,0,0-.52-.51,2.12,2.12,0,0,0-1-.2,4,4,0,0,0-.86.09,6.21,6.21,0,0,0-.81.24v-.83a3,3,0,0,1,.36-.14,3.17,3.17,0,0,1,.44-.12,3.61,3.61,0,0,1,.49-.07l.51,0a3,3,0,0,1,1.5.33,1.91,1.91,0,0,1,.83.86,1.49,1.49,0,0,1,.14.45,3,3,0,0,1,0,.54v4h-.83Zm-.06-2-.64-.15a4.28,4.28,0,0,0-.83-.07,1.58,1.58,0,0,0-1,.26,1,1,0,0,0-.36.83,1.26,1.26,0,0,0,.09.49.86.86,0,0,0,.25.34,1,1,0,0,0,.37.21,1.63,1.63,0,0,0,.45.06,1.87,1.87,0,0,0,.59-.09,2.12,2.12,0,0,0,.48-.22,2.37,2.37,0,0,0,.37-.25,2.18,2.18,0,0,0,.21-.2Z" transform="translate(-124.7 -284)"/><path class="cls-1" d="M407.87,363.72v-1.1h1v1.1Zm0,7.47v-6.06h1v6.06Z" transform="translate(-124.7 -284)"/><path class="cls-1" d="M414.18,365.93h-.07a3.84,3.84,0,0,0-.69.07,3.18,3.18,0,0,0-.64.19,2.76,2.76,0,0,0-.53.32,1.77,1.77,0,0,0-.4.46v4.22h-1v-6.06h.77l.19,1h0a2,2,0,0,1,.36-.44,2.47,2.47,0,0,1,.48-.35,2.72,2.72,0,0,1,.58-.24,2.52,2.52,0,0,1,.67-.09h.25Z" transform="translate(-124.7 -284)"/><path class="cls-1" d="M419,370.25h4.37v.94H418v-8.53h5.18v.94H419v2.75h3.68v.94H419Z" transform="translate(-124.7 -284)"/><path class="cls-1" d="M427.08,367.46l1.65-2.33h1.09l-2.22,3,2.3,3.06h-1.07l-1.77-2.43h0l-1.75,2.43h-1.07l2.3-3.09-2.21-3h1.09l1.67,2.33Z" transform="translate(-124.7 -284)"/><path class="cls-1" d="M434.17,371.2a2.39,2.39,0,0,1-.38.09,5.2,5.2,0,0,1-.63.06,2.59,2.59,0,0,1-.83-.12,1.51,1.51,0,0,1-.58-.34,1.37,1.37,0,0,1-.35-.53,2.19,2.19,0,0,1-.11-.7V366h-1.17v-.85h1.17v-1.66h1v1.66h1.8V366h-1.8v3.53a1,1,0,0,0,.06.39.77.77,0,0,0,.19.31,1,1,0,0,0,.33.2,1.45,1.45,0,0,0,.49.07l.42,0,.4-.08Z" transform="translate(-124.7 -284)"/><path class="cls-1" d="M438.39,370.48a4.94,4.94,0,0,0,.89-.07,6.15,6.15,0,0,0,.81-.23V371a3.14,3.14,0,0,1-.8.25,5.62,5.62,0,0,1-1,.1,4.39,4.39,0,0,1-1.22-.17,2.51,2.51,0,0,1-1-.54,2.4,2.4,0,0,1-.65-1,3.88,3.88,0,0,1-.24-1.44,4.18,4.18,0,0,1,.23-1.44,3.06,3.06,0,0,1,.61-1,2.5,2.5,0,0,1,.88-.61,2.61,2.61,0,0,1,1-.21,2.75,2.75,0,0,1,.95.17,1.91,1.91,0,0,1,.76.53,2.57,2.57,0,0,1,.51.94,4.3,4.3,0,0,1,.19,1.38v.13s0,.12,0,.24h-4.18a2.43,2.43,0,0,0,.18,1,1.6,1.6,0,0,0,.48.65,1.93,1.93,0,0,0,.71.37A3.08,3.08,0,0,0,438.39,370.48Zm-.52-4.66a1.53,1.53,0,0,0-.64.13,1.46,1.46,0,0,0-.51.37,1.7,1.7,0,0,0-.36.54,2.29,2.29,0,0,0-.17.66h3.1a2.41,2.41,0,0,0-.09-.67,1.54,1.54,0,0,0-.28-.54,1.29,1.29,0,0,0-.44-.36A1.33,1.33,0,0,0,437.87,365.82Z" transform="translate(-124.7 -284)"/><path class="cls-1" d="M443,366h0a2.72,2.72,0,0,1,.37-.39,2.14,2.14,0,0,1,.45-.32,2.17,2.17,0,0,1,.54-.21A2.69,2.69,0,0,1,445,365a2.5,2.5,0,0,1,.78.12,1.55,1.55,0,0,1,.63.37,1.7,1.7,0,0,1,.42.66,2.74,2.74,0,0,1,.16,1v4.06h-1v-3.9a1.72,1.72,0,0,0-.3-1.13,1.12,1.12,0,0,0-.89-.34,1.87,1.87,0,0,0-1,.28,2.67,2.67,0,0,0-.83.78v4.31h-1v-6.06h.76Z" transform="translate(-124.7 -284)"/><path class="cls-1" d="M449.6,366.74a.71.71,0,0,0,.1.41.81.81,0,0,0,.29.26,1.4,1.4,0,0,0,.41.16c.15.05.31.08.48.12a5.59,5.59,0,0,1,.65.17,1.93,1.93,0,0,1,.56.27,1.48,1.48,0,0,1,.42.5,1.8,1.8,0,0,1-.52,2.23,2.33,2.33,0,0,1-.78.36,3.85,3.85,0,0,1-1,.13,5.32,5.32,0,0,1-.6,0,2.94,2.94,0,0,1-.48-.09,2.42,2.42,0,0,1-.35-.11,1.38,1.38,0,0,1-.24-.11v-.83a5.87,5.87,0,0,0,.74.25,4.15,4.15,0,0,0,.82.08,3.06,3.06,0,0,0,.63-.06,1.3,1.3,0,0,0,.48-.19.87.87,0,0,0,.32-.31.9.9,0,0,0,.11-.44.75.75,0,0,0-.37-.69,2.32,2.32,0,0,0-.39-.18l-.47-.13c-.21,0-.43-.1-.65-.16a2.46,2.46,0,0,1-.59-.27,1.25,1.25,0,0,1-.44-.47,1.55,1.55,0,0,1-.17-.76,1.78,1.78,0,0,1,.18-.83,1.65,1.65,0,0,1,.46-.58,2,2,0,0,1,.68-.34,2.82,2.82,0,0,1,.83-.12,4.58,4.58,0,0,1,1.71.34v.84a5.43,5.43,0,0,0-.75-.24,4.17,4.17,0,0,0-.79-.1,2.51,2.51,0,0,0-.59.07,1.19,1.19,0,0,0-.39.2.71.71,0,0,0-.23.29A.9.9,0,0,0,449.6,366.74Z" transform="translate(-124.7 -284)"/><path class="cls-1" d="M454.21,363.72v-1.1h1v1.1Zm0,7.47v-6.06h1v6.06Z" transform="translate(-124.7 -284)"/><path class="cls-1" d="M462.59,368.17a4.17,4.17,0,0,1-.2,1.3,3,3,0,0,1-.58,1,2.67,2.67,0,0,1-.9.65,3.22,3.22,0,0,1-2.39,0,2.61,2.61,0,0,1-.91-.65,2.81,2.81,0,0,1-.57-1,4.17,4.17,0,0,1-.2-1.3,3.87,3.87,0,0,1,.21-1.31,3,3,0,0,1,.57-1,2.49,2.49,0,0,1,.91-.65,3,3,0,0,1,1.19-.23,3.06,3.06,0,0,1,1.2.23,2.49,2.49,0,0,1,.91.65,3,3,0,0,1,.56,1A3.87,3.87,0,0,1,462.59,368.17Zm-1,0a3.35,3.35,0,0,0-.14-1,2.25,2.25,0,0,0-.38-.74,1.6,1.6,0,0,0-.58-.46,1.82,1.82,0,0,0-.74-.16,1.78,1.78,0,0,0-.74.16,1.52,1.52,0,0,0-.58.46,2.09,2.09,0,0,0-.39.74,3.87,3.87,0,0,0,0,2,2,2,0,0,0,.39.73,1.66,1.66,0,0,0,.59.46,1.88,1.88,0,0,0,1.47,0,1.71,1.71,0,0,0,.58-.46,2.19,2.19,0,0,0,.38-.73A3.38,3.38,0,0,0,461.56,368.17Z" transform="translate(-124.7 -284)"/><path class="cls-1" d="M465.11,366h0a2.72,2.72,0,0,1,.37-.39,2.36,2.36,0,0,1,.44-.32,2.41,2.41,0,0,1,.55-.21,2.63,2.63,0,0,1,.65-.08,2.43,2.43,0,0,1,.77.12,1.43,1.43,0,0,1,.63.37,1.84,1.84,0,0,1,.43.66,3,3,0,0,1,.15,1v4.06h-1v-3.9a1.66,1.66,0,0,0-.31-1.13,1.1,1.1,0,0,0-.88-.34,1.91,1.91,0,0,0-1,.28,2.64,2.64,0,0,0-.82.78v4.31h-1v-6.06h.77Z" transform="translate(-124.7 -284)"/><path class="cls-1" d="M471.74,366.74a.71.71,0,0,0,.11.41.78.78,0,0,0,.28.26,1.67,1.67,0,0,0,.41.16c.16.05.32.08.49.12a5.41,5.41,0,0,1,.64.17,1.87,1.87,0,0,1,.57.27,1.48,1.48,0,0,1,.42.5,1.93,1.93,0,0,1,.16.82,1.8,1.8,0,0,1-.18.82,1.69,1.69,0,0,1-.51.59,2.19,2.19,0,0,1-.77.36,4,4,0,0,1-1,.13,5.32,5.32,0,0,1-.6,0,2.94,2.94,0,0,1-.48-.09,2.08,2.08,0,0,1-.35-.11,1.38,1.38,0,0,1-.24-.11v-.83a5.37,5.37,0,0,0,.74.25,4.12,4.12,0,0,0,.81.08,3.1,3.1,0,0,0,.64-.06,1.46,1.46,0,0,0,.48-.19.77.77,0,0,0,.31-.31.8.8,0,0,0,.11-.44.77.77,0,0,0-.1-.42.7.7,0,0,0-.27-.27,1.76,1.76,0,0,0-.39-.18c-.14-.05-.3-.09-.46-.13s-.43-.1-.65-.16a2.74,2.74,0,0,1-.6-.27,1.22,1.22,0,0,1-.43-.47,1.55,1.55,0,0,1-.17-.76,1.92,1.92,0,0,1,.17-.83,1.67,1.67,0,0,1,.47-.58,1.89,1.89,0,0,1,.68-.34,2.76,2.76,0,0,1,.82-.12,4,4,0,0,1,.94.1,4.45,4.45,0,0,1,.78.24v.84a5.15,5.15,0,0,0-.76-.24,4.06,4.06,0,0,0-.79-.1,2.42,2.42,0,0,0-.58.07,1.36,1.36,0,0,0-.4.2.68.68,0,0,0-.22.29A.91.91,0,0,0,471.74,366.74Z" transform="translate(-124.7 -284)"/><path class="cls-2" d="M284.37,308.57l-1.93,4.91H282a4.8,4.8,0,0,0,.11-1.19.77.77,0,0,0-.45-.81,4.25,4.25,0,0,0-1.45-.18H269.64v34.76A8.34,8.34,0,0,0,270,349a1.62,1.62,0,0,0,.94,1,6.28,6.28,0,0,0,1.92.21v.41h-11v-.41c1.38-.09,2.24-.36,2.59-.8a4.85,4.85,0,0,0,.53-2.76V311.3H254.79a6.92,6.92,0,0,0-2,.18c-.31.12-.47.41-.47.89a4.41,4.41,0,0,0,.23,1.11h-.42l-1.93-4.91h.41a2.46,2.46,0,0,0,1,1.2,6.82,6.82,0,0,0,2.08.2h27a9.47,9.47,0,0,0,2.3-.2,1.66,1.66,0,0,0,1-1.2Z" transform="translate(-124.7 -284)"/><path class="cls-2" d="M297.08,310v.42a4.1,4.1,0,0,0-1.77.24,1.59,1.59,0,0,0-1.16,1,14.64,14.64,0,0,0-.18,3v31.18a13.6,13.6,0,0,0,.2,3.1,1.9,1.9,0,0,0,.8.94,4.26,4.26,0,0,0,2.11.37v.41H286.24v-.41c1.36,0,2.21-.26,2.54-.78a8,8,0,0,0,.5-3.57V315a8.5,8.5,0,0,0-.55-3.79q-.56-.9-2.49-.78V310Z" transform="translate(-124.7 -284)"/><path class="cls-2" d="M334.52,310h7.86v.42a3.6,3.6,0,0,0-2.48.75,4.45,4.45,0,0,0-.69,3v37l-32.42-34.51v30a7.37,7.37,0,0,0,.23,2.13,1.52,1.52,0,0,0,.63.93,6.93,6.93,0,0,0,2.07.5v.41h-7.81v-.41c1.4,0,2.27-.25,2.61-.74a7.6,7.6,0,0,0,.51-3.56V318.41a14.75,14.75,0,0,0-1-5.9c-.67-1.53-2.22-2.23-4.65-2.12V310H307l30.45,32.43V313.72c0-1.54-.28-2.48-.83-2.82a4,4,0,0,0-2.12-.51Z" transform="translate(-124.7 -284)"/><path class="cls-1" d="M376.31,330.33H354V346a11.22,11.22,0,0,0,.21,2.81,2.11,2.11,0,0,0,.77,1,3.54,3.54,0,0,0,2,.41v.41H346.43v-.41c1.92.13,2.87-.8,2.87-2.78V314.74a8.44,8.44,0,0,0-.45-3.53c-.31-.49-1.11-.77-2.42-.82V310h10.51v.42a4,4,0,0,0-2.34.66,3.06,3.06,0,0,0-.61,2.26V329.2h22.32V314.66a8.85,8.85,0,0,0-.43-3.38c-.28-.6-1.08-.89-2.39-.89V310h10.38v.42a4.29,4.29,0,0,0-1.83.29,1.53,1.53,0,0,0-.82.89,12.27,12.27,0,0,0-.22,3.09v31.18a11.61,11.61,0,0,0,.22,3,2.07,2.07,0,0,0,.76,1,3.5,3.5,0,0,0,1.89.38v.41H373.49v-.41a2.82,2.82,0,0,0,2.25-.69q.57-.69.57-3.72Z" transform="translate(-124.7 -284)"/><path class="cls-1" d="M409.78,331.9H397.85l-6.15,15.34a8.89,8.89,0,0,0-.63,2c0,.61.45.91,1.35.91v.41h-6v-.41a3.44,3.44,0,0,0,2-.59,7.59,7.59,0,0,0,1.82-3.08L405,309.37h.73l14.49,35.88a15.83,15.83,0,0,0,1.11,2.61,3.62,3.62,0,0,0,3.4,2.33v.41H415.2v-.41c.87,0,1.3-.34,1.3-1a6.76,6.76,0,0,0-.63-2.21.85.85,0,0,1-.2-.36c0-.18-.06-.27-.08-.27Zm-11.54-1.13h11l-5.49-13.85Z" transform="translate(-124.7 -284)"/><path class="cls-1" d="M437.74,310v.42a4.14,4.14,0,0,0-1.78.24,1.61,1.61,0,0,0-1.16,1,14.64,14.64,0,0,0-.18,3v31.18a12.77,12.77,0,0,0,.21,3.1,1.85,1.85,0,0,0,.8.94,4.26,4.26,0,0,0,2.11.37v.41H426.9v-.41c1.36,0,2.21-.26,2.54-.78a8.07,8.07,0,0,0,.49-3.57V315a8.36,8.36,0,0,0-.55-3.79c-.37-.6-1.19-.86-2.48-.78V310Z" transform="translate(-124.7 -284)"/><path class="cls-1" d="M441.85,310.39V310h11.53q4.38,0,6.35.2a10.63,10.63,0,0,1,4,1.28,7.49,7.49,0,0,1,3.1,2.95,9.22,9.22,0,0,1,1.05,4.57,10.52,10.52,0,0,1-1.86,5.9,15.27,15.27,0,0,1-5.26,4.73l2.87,4.41q.94,1.65,5,7.25t6.25,6.82a8.77,8.77,0,0,0,4.27,1.23,9.51,9.51,0,0,0,4.69-1.57l.17.55a13.17,13.17,0,0,1-8.6,2.7,9.24,9.24,0,0,1-6.06-2.09q-2.54-2.08-8.83-11.46a.16.16,0,0,1-.05-.11l-4.09-6.28-3.62.11h-3.29v15.53a5.42,5.42,0,0,0,.5,2.69c.32.54,1.12.81,2.37.81v.41H441.85v-.41c1.31-.05,2.12-.33,2.44-.83a6.28,6.28,0,0,0,.48-3V314.05a7,7,0,0,0-.41-2.6C444.08,310.76,443.25,310.4,441.85,310.39Zm7.61.66v19.06h4.26q5,0,7.46-2.37a8.32,8.32,0,0,0,2.43-6.24,12,12,0,0,0-2.39-7.1c-1.59-2.23-4.4-3.35-8.41-3.35Z" transform="translate(-124.7 -284)"/><path class="cls-3" d="M231.93,318.08a56,56,0,1,0,4.39,21.73A55.5,55.5,0,0,0,231.93,318.08Zm-51.42,75.56a53.84,53.84,0,1,1,53.83-53.83A53.89,53.89,0,0,1,180.51,393.64Z" transform="translate(-124.7 -284)"/><path class="cls-4" d="M227.89,319.79a51.51,51.51,0,1,0,4.05,20A51.12,51.12,0,0,0,227.89,319.79Zm-47.38,71a51,51,0,1,1,51-51A51.09,51.09,0,0,1,180.51,390.84Z" transform="translate(-124.7 -284)"/><path class="cls-2" d="M199.85,374.07s.09-.26.27-.74l.34-.88c.15-.34.29-.74.46-1.18q.14-.33.27-.69l.15-.37.15-.39c.19-.53.42-1.09.64-1.7.11-.31.22-.62.34-.94l.17-.49.17-.51c.12-.34.24-.68.36-1l.34-1.09a42.15,42.15,0,0,0,1.16-4.77c.07-.42.15-.84.19-1.26l.08-.64c0-.22,0-.43,0-.65,0-.43,0-.85.05-1.28v-.32l0-.32c0-.22,0-.43,0-.64l-.06-.64-.09-.63c0-.21-.08-.41-.12-.62l-.06-.31,0-.08,0-.07-.05-.15a11.56,11.56,0,0,0-.88-2.38,17.81,17.81,0,0,0-3.13-4.42c-1.31-1.41-2.82-2.77-4.37-4.14s-3.15-2.77-4.64-4.29c-.18-.19-.37-.37-.55-.57l-.54-.58-.53-.6-.5-.61-.13-.15-.12-.16-.24-.31-.24-.31-.22-.33c-.31-.42-.59-.86-.86-1.3a18.55,18.55,0,0,1-1.33-2.73l-.24-.69c-.08-.23-.14-.46-.2-.69l-.1-.34c0-.11-.05-.23-.07-.34s-.1-.46-.14-.68l-.09-.67,0-.32c0-.11,0-.22,0-.33l0-.64c0-.1,0-.2,0-.31v-.3c0-.21,0-.41,0-.6l0-.58,0-.28,0-.27.09-.53.09-.51.12-.49.11-.46a2,2,0,0,1,.07-.23l.06-.21c.09-.29.18-.56.27-.82s.19-.49.28-.72c.17-.45.38-.84.54-1.18l.12-.24a1.51,1.51,0,0,1,.11-.22l.21-.38.4-.68s0,.28-.07.78c0,.26-.06.57-.08.93l0,.59c0,.1,0,.21,0,.32V318c0,.23,0,.47,0,.73v1c0,.07,0,.14,0,.21l0,.43,0,.45c0,.15,0,.3.06.45a14.29,14.29,0,0,0,1,3.84l.22.49.12.25.13.24.13.24c0,.08.08.16.13.24l.29.48a17.16,17.16,0,0,0,1.39,1.88c.28.31.55.62.85.92l.22.23.23.23.23.23.12.11.12.11.49.45.51.45.53.45.27.23.28.22c1.46,1.21,3.1,2.42,4.77,3.76a44.24,44.24,0,0,1,5,4.52c.2.22.4.44.59.67l.58.69c.19.23.37.48.55.72s.18.24.27.37l.26.38.13.19a2.14,2.14,0,0,1,.13.19l.25.39.24.4.22.41.22.41.21.42c.13.28.27.56.38.86l.18.43a3.89,3.89,0,0,1,.16.44c.1.3.2.59.29.89l.24.9c0,.15.06.3.09.45l.09.45,0,.23,0,.11,0,.11.05.46c0,.3.08.6.09.9s0,.59,0,.88l0,.88c0,.29,0,.58-.05.86l0,.42,0,.22a1.36,1.36,0,0,1,0,.2l-.12.83c0,.27-.11.53-.16.8s-.11.52-.17.78l-.21.76c-.07.25-.13.5-.22.74l-.24.71a30.48,30.48,0,0,1-2.32,5c-.21.36-.42.72-.63,1.06l-.64,1-.31.47-.31.44-.61.84c-.2.28-.4.53-.6.77l-.56.71-.27.33-.27.31-.5.57-.45.51-.41.44-.65.67Z" transform="translate(-124.7 -284)"/><path class="cls-5" d="M212.28,357.36l.21-.76c0-.26.11-.52.16-.78s.12-.53.16-.8l.12-.83,0-.2,0-.21,0-.43a8.1,8.1,0,0,0,.06-.86v-.87c0-.3,0-.6,0-.89s0-.6-.08-.9l-.06-.45v-.12l0-.11-.05-.23-.08-.45c0-.15-.06-.3-.1-.45l-.23-.9c-.09-.3-.19-.59-.29-.89s-.11-.29-.17-.44l-.17-.43a8.36,8.36,0,0,0-.39-.86c-.06-.14-.13-.28-.2-.42l-.23-.41-.22-.41-.24-.39-.25-.4-.12-.19-.13-.19-.26-.38-.27-.37c-.18-.24-.37-.49-.56-.72l-.57-.69-.6-.67a46.06,46.06,0,0,0-5-4.52c-1.67-1.34-3.31-2.55-4.78-3.75l-.27-.23-.27-.23c-.18-.15-.36-.29-.53-.45l-.51-.45-.49-.45-.13-.11-.11-.11-.23-.23-.24-.23-.22-.23c-.3-.3-.56-.61-.84-.91a17,17,0,0,1-1.4-1.89l-.29-.48c0-.08-.09-.16-.13-.24l-.13-.24-.13-.24c0-.08-.07-.17-.11-.25l-.22-.48a14.48,14.48,0,0,1-1-3.85l0-.27a.31.31,0,0,1,0-.1.22.22,0,0,1,0-.08l0-.44,0-.31a23.59,23.59,0,0,1,1.34-7.84l0,.05a7.52,7.52,0,0,0-1.33,1.66,11.91,11.91,0,0,0-1.76,8l0,.44c0,.06,0,.14,0,.23a1.1,1.1,0,0,1,0,.18,13.73,13.73,0,0,0,.9,3.54c.08.15.15.31.22.47l.05.1a.36.36,0,0,0,0,.09l.12.24.13.24.05.08a.29.29,0,0,0,0,.08l0,0,.28.47a17,17,0,0,0,1.29,1.74l.23.25c.19.22.37.43.57.62l.22.23.22.22.34.33.59.54.51.45.31.26.2.17.26.22.27.22c.82.68,1.69,1.35,2.61,2.06.7.54,1.43,1.1,2.16,1.69a45.76,45.76,0,0,1,5.13,4.63l.19.21.42.48h0l.57.7h0l.47.61.1.13c.09.12.17.23.24.34l.32.45.13.19.11.17.3.48.07.12.19.31.22.41.23.41v0l.15.31.12.23c.12.26.25.53.36.83l.18.44a4.6,4.6,0,0,1,.18.49c0,.08.06.16.08.23s.15.45.22.68v0l.23.89c0,.15.07.29.09.41a.36.36,0,0,1,0,.11s.09.46.09.46l0,.24,0,.11a.13.13,0,0,0,0,.06v.11l.07.61c0,.27.07.54.08.83s0,.6,0,.91v0l0,.87a6.8,6.8,0,0,1,0,.8l-.05.57,0,.22a1.37,1.37,0,0,1,0,.19s-.13.88-.13.88a5.69,5.69,0,0,1-.13.67,1.42,1.42,0,0,1,0,.2s0,.17,0,.26l-.12.55,0,0-.21.77,0,.2c-.06.19-.11.39-.18.59l-.25.72a31.22,31.22,0,0,1-2.4,5.17l-.13.23c-.18.29-.34.57-.51.85l0,0-.08.13-.56.86-.32.48-.22.31-.11.15c-.18.25-.39.55-.61.84s-.33.45-.49.65a1.83,1.83,0,0,0-.13.16l-.57.72a.44.44,0,0,0-.09.11l-.11.13.35-.36c.12-.14.27-.28.41-.44l.45-.51.5-.57.27-.31.26-.33c.19-.22.37-.46.57-.71s.4-.49.59-.77l.61-.84c.11-.14.21-.29.32-.44l.31-.47.64-1c.2-.34.41-.69.62-1.06a29.31,29.31,0,0,0,2.32-5l.25-.71C212.14,357.86,212.2,357.61,212.28,357.36Z" transform="translate(-124.7 -284)"/><path class="cls-5" d="M200.36,362.89a18.92,18.92,0,0,1,4-8.31,3.25,3.25,0,0,0,0-.33v0l-.06-.62a1.87,1.87,0,0,0,0-.25c0-.12,0-.25,0-.37h0c0-.13-.05-.27-.08-.42l0-.14-.08-.37V352l0-.16h0a12.13,12.13,0,0,0-.83-2.26l-.19-.37a34.15,34.15,0,0,0-4.71,11.3,24.67,24.67,0,0,0,1.41,15.44A41.88,41.88,0,0,1,200.36,362.89Z" transform="translate(-124.7 -284)"/><path class="cls-5" d="M192.25,315l0,.22,0,.46c0,.16,0,.32,0,.48v.49l0,.5c0,.09,0,.17,0,.26l0,.26.07.53c0,.17.07.35.11.53l.06.28.08.27a5.7,5.7,0,0,0,.16.55l.19.55a14.78,14.78,0,0,0,1.05,2.16c.22.35.44.7.68,1l.18.26a2.35,2.35,0,0,1,.19.25l.19.25.1.12.1.12.4.49.42.47.42.46.44.45c1.18,1.21,2.45,2.31,3.68,3.4s2.43,2.17,3.47,3.29a14.63,14.63,0,0,1,2.49,3.5,9.77,9.77,0,0,1,.46,1.12c.35.34.69.69,1,1.06l.19.21.42.47.59.71.47.6.1.13.23.32.32.46.13.19.09.15s.3.47.3.47l.08.13a2,2,0,0,1,.17.29l.21.37,0-.22c.05-.21.1-.42.13-.63l.09-.66a.88.88,0,0,0,0-.16l0-.17,0-.34c0-.22,0-.45,0-.68v-.69l0-.71c0-.23,0-.47-.07-.71l0-.36v-.09l0-.09,0-.18-.07-.36a2.33,2.33,0,0,0-.08-.36l-.18-.71c-.07-.24-.16-.47-.23-.7s-.09-.24-.13-.35l-.14-.35c-.09-.23-.2-.45-.31-.68s-.1-.22-.16-.33l-.18-.32-.18-.33a3.21,3.21,0,0,0-.19-.31l-.19-.32-.1-.15-.1-.15-.21-.3-.21-.3-.44-.57-.46-.55-.47-.52a35.35,35.35,0,0,0-4-3.59c-1.33-1.06-2.63-2-3.79-3l-.22-.18-.21-.18c-.14-.12-.29-.23-.42-.35l-.41-.36-.39-.36-.1-.09-.09-.09-.18-.18-.19-.18-.17-.18c-.24-.24-.45-.49-.67-.73a13.36,13.36,0,0,1-1.11-1.49l-.23-.38-.1-.2-.11-.19-.1-.19-.09-.19-.18-.39a12.13,12.13,0,0,1-.78-3.05c0-.12,0-.24,0-.36l0-.35,0-.34v-1c0-.2,0-.39,0-.58v-.27c0-.08,0-.17,0-.25l0-.47c0-.29,0-.53.06-.73,0-.4.06-.62.06-.62s-.12.18-.32.54l-.17.29-.09.18-.09.19c-.13.27-.29.58-.43.94-.07.18-.15.37-.22.57s-.14.42-.21.65l-.06.17c0,.06,0,.11-.05.18l-.09.36-.09.39c0,.13,0,.27-.07.4l-.07.42A1.92,1.92,0,0,0,192.25,315Z" transform="translate(-124.7 -284)"/><path class="cls-5" d="M177.73,330.28s.4,1.49-.91,1.69c0,0,3.23,3.17,8.2.45C185,332.42,180.12,334.46,177.73,330.28Z" transform="translate(-124.7 -284)"/><path class="cls-5" d="M191.71,350" transform="translate(-124.7 -284)"/><path class="cls-2" d="M173.39,337.43l.07,0,.22.05.34.1c.14,0,.28.12.45.2a4.37,4.37,0,0,1,1.06.74c.08.09.18.18.26.28s.18.21.25.32l.13.18.11.19c0,.06.07.12.1.19l.1.2.06.11a.76.76,0,0,0,0,.11l.08.22a1.55,1.55,0,0,1,.07.23.88.88,0,0,1,.07.23,4,4,0,0,1,.1.5,2.17,2.17,0,0,1,0,.25l0,.26v.09h0s0,0,0,0v.39a2.62,2.62,0,0,1,0,.28v.28a2.45,2.45,0,0,1,0,.27l0,.28c0,.09,0,.18,0,.27s0,.19,0,.28a10.88,10.88,0,0,1-.25,1.1c-.05.18-.1.36-.16.54s-.11.36-.17.54-.13.35-.19.52l-.19.51-.36,1c-.23.65-.46,1.29-.64,1.9-.05.15-.09.3-.13.45a4.16,4.16,0,0,0-.12.44c-.07.29-.13.57-.17.84a1.62,1.62,0,0,0,0,.2l0,.2c0,.07,0,.13,0,.19s0,.13,0,.19a5.55,5.55,0,0,0,0,.71l0,.16c0,.06,0,.11,0,.17s0,.21.08.31l0,.15.06.15a2.39,2.39,0,0,0,.13.28,4,4,0,0,0,.7,1c.07.07.13.15.2.21l.2.18a2.61,2.61,0,0,0,.2.17l.18.16a3.47,3.47,0,0,1,.33.26l.14.1.12.08.16.12.06.05L177,357l-.27-.07-.32-.09-.42-.14-.51-.2c-.18-.09-.38-.17-.58-.29a4.8,4.8,0,0,1-1.18-.91,4,4,0,0,1-.88-1.46,3.81,3.81,0,0,1-.13-.45c0-.15-.06-.31-.09-.46a5.4,5.4,0,0,1,0-1,9.41,9.41,0,0,1,.3-2.06,21,21,0,0,1,.64-2.1c.25-.69.54-1.38.81-2.05s.5-1.33.68-2c.09-.32.16-.64.22-.95l0-.24c0-.07,0-.15,0-.22s0-.16,0-.23v-.23a5.36,5.36,0,0,0-.12-1.63,4.54,4.54,0,0,0-.51-1.26,4.39,4.39,0,0,0-.66-.84l-.3-.26a2.48,2.48,0,0,0-.25-.18l-.21-.15Z" transform="translate(-124.7 -284)"/><path class="cls-5" d="M181.41,320.91c0-.19,0-.36,0-.53s0-.34,0-.49a6.45,6.45,0,0,0-.3-1.53c-.07-.19-.12-.36-.19-.5a2,2,0,0,0-.17-.33l-.11-.19,0-.06-.16.08.12.26a3.87,3.87,0,0,1,.19.49l0,0a7.41,7.41,0,0,1,.32,1.61v.08c0,.14,0,.28,0,.44v.1c0,.14,0,.29,0,.44v0a2.26,2.26,0,0,1,0,.26c0,.07,0,.14,0,.21l0,.18a1.49,1.49,0,0,0,0,.21l-.07.46a.43.43,0,0,1,0,.12l-.07.36a1.42,1.42,0,0,1-.05.22,2,2,0,0,0,0,.21l-.06.23c-.06.23-.13.45-.2.65l0,.1a2.09,2.09,0,0,1-.08.23l-.16.45h0v.06s0,.09-.05.14l-.08.18-.09.2-.12.26-.15.31a1.51,1.51,0,0,1-.11.22l0,.09-.13.24,0,.07-.17.31,0,.08-.13.22c-.24.41-.51.8-.74,1.14l-.39.54-.39.53-.28.36-.12.14L176,331.23c-.53.67-1,1.24-1.38,1.8v0q-.17.21-.3.42a4.56,4.56,0,0,0-.27.39l0,.05c-.18.28-.36.57-.53.86l-.05.08-.06.12-.12.22-.06.11a.47.47,0,0,1-.05.1.59.59,0,0,1,0,.08.54.54,0,0,0-.05.11h0a8.39,8.39,0,0,0-.34.81h0l0,.11,0,.07,0,.09,0,.1a1.09,1.09,0,0,1-.05.17l-.06.23,0,.21,0,.19c0,.09,0,.17-.05.25a.77.77,0,0,1,0,.15,9.26,9.26,0,0,0-.05,1.52.49.49,0,0,1,0,.12c0,.08,0,.15,0,.22s0,.24,0,.36a1.23,1.23,0,0,0,0,.19s0,.07,0,.11,0,.12,0,.18,0,.07,0,.11.06.35.08.5,0,.08,0,.12a.22.22,0,0,1,0,.08l0,.17,0,.18,0,.13a.56.56,0,0,0,0,.08l.13.25.15-.16v-.08a1.73,1.73,0,0,0,0-.24l0-.18c0-.06,0-.12,0-.2s-.06-.32-.09-.5,0-.2,0-.3,0-.2,0-.32l0-.34a2.11,2.11,0,0,1,0-.36,8.59,8.59,0,0,1,0-1.59c0-.13,0-.27.06-.41l0-.2.05-.21c0-.14.08-.27.11-.41l.07-.21c0-.07,0-.14.07-.21.11-.27.22-.55.36-.83l.1-.21.11-.22.12-.21a2.39,2.39,0,0,1,.12-.22c.17-.28.35-.58.54-.87s.2-.3.31-.44l.31-.45c.44-.6.91-1.2,1.4-1.82.25-.3.5-.61.74-.92l.39-.48.39-.5.39-.52c.13-.17.25-.35.38-.54.25-.36.5-.73.73-1.12.06-.1.12-.2.17-.3a2.75,2.75,0,0,0,.17-.29c.06-.1.11-.2.16-.3l.16-.31.15-.31c.05-.1.1-.22.15-.33l0-.08,0,0,0,0,.05-.13.06-.14v0l0,0h0v0l0-.08.12-.32c0-.11.07-.22.1-.32a5.74,5.74,0,0,0,.19-.64c0-.11.06-.22.08-.32s0-.21.07-.31l.06-.31,0-.15,0-.16,0-.3,0-.29,0-.28A2.53,2.53,0,0,1,181.41,320.91Z" transform="translate(-124.7 -284)"/><path class="cls-2" d="M179.23,317.13l0,.06.11.19a3.15,3.15,0,0,1,.17.33c.06.14.12.31.19.5a7.64,7.64,0,0,1,.3,1.53c0,.15,0,.32,0,.49s0,.34,0,.53a2.72,2.72,0,0,1,0,.28c0,.09,0,.18,0,.28l0,.29,0,.3,0,.16,0,.15-.06.31c0,.1,0,.2-.07.31s-.05.21-.08.32-.12.42-.19.64-.07.21-.11.32l-.11.32,0,.08v0h0v0l0,0a.78.78,0,0,1-.05.14l-.06.13v0l0,0,0,.08-.16.33-.14.31c-.05.1-.11.2-.16.31l-.16.3c-.06.1-.11.2-.17.29l-.17.3c-.23.39-.48.76-.73,1.12l-.38.54-.39.52-.4.5-.38.48-.74.92c-.49.62-1,1.22-1.4,1.82l-.32.45-.3.44c-.19.29-.38.59-.54.87,0,.08-.09.15-.13.22l-.11.21-.11.22c0,.07-.08.14-.11.21-.13.28-.24.56-.35.83a1.72,1.72,0,0,0-.07.21c0,.07-.05.14-.07.21s-.08.27-.11.41l-.05.21,0,.2c0,.14,0,.28-.06.41a8.62,8.62,0,0,0-.06,1.59c0,.12,0,.25,0,.36l0,.34c0,.12,0,.22,0,.32s0,.2,0,.3.06.35.08.5,0,.14,0,.2l0,.18a1.48,1.48,0,0,1,0,.24l0,.08-.15.16-.13-.25a1.63,1.63,0,0,1-.16-.3l-.21-.42c-.07-.17-.15-.35-.22-.55a7,7,0,0,1-.23-.69,8.43,8.43,0,0,1-.3-1.79,8.52,8.52,0,0,1,.19-2.25,5.63,5.63,0,0,1,.14-.59c.06-.21.12-.4.19-.6a10.73,10.73,0,0,1,.47-1.18,18.65,18.65,0,0,1,1.26-2.22c.47-.71,1-1.39,1.5-2s1.06-1.28,1.58-1.9a23.3,23.3,0,0,0,1.46-1.89c.23-.32.44-.65.64-1l.14-.25c.05-.08.1-.16.14-.24s.09-.17.14-.26l.07-.12v0l0,0,0-.06a10.83,10.83,0,0,0,.76-2,9.17,9.17,0,0,0,.32-1.79,7.89,7.89,0,0,0,0-1.38c0-.19,0-.36-.06-.5s0-.26-.06-.36l-.07-.3Z" transform="translate(-124.7 -284)"/><path class="cls-5" d="M176.11,348.31l.16.25c.11.16.27.39.46.69l.71,1.06c.13.2.28.42.44.64l.49.71c.35.49.72,1,1.13,1.56s.84,1.11,1.3,1.68l.72.86.76.84a18.8,18.8,0,0,0,1.65,1.57,12.22,12.22,0,0,0,1.79,1.31l.47.27.48.23.24.11.24.09c.15.07.32.11.48.17a7.13,7.13,0,0,0,1.9.32,7.37,7.37,0,0,0,1.78-.17l.4-.1.39-.11.18-.05.18-.07.35-.12c.43-.19.82-.36,1.13-.52l.42-.21.31-.17.26-.14.07.08-.23.19-.27.22-.38.28q-.44.32-1.08.69a8.77,8.77,0,0,1-1.53.67,6.82,6.82,0,0,1-1.93.37,7.28,7.28,0,0,1-2.2-.22,8.86,8.86,0,0,1-2.18-.89,12.83,12.83,0,0,1-2-1.39,18.54,18.54,0,0,1-1.73-1.7q-.8-.9-1.47-1.83a34.46,34.46,0,0,1-2.24-3.49c-.59-1.06-1-2-1.33-2.61s-.44-1-.44-1Z" transform="translate(-124.7 -284)"/><path class="cls-5" d="M190,341.92c.07.48,0,.88-.09.9s-.27-.36-.34-.84,0-.88.09-.9S189.9,341.44,190,341.92Z" transform="translate(-124.7 -284)"/><path class="cls-5" d="M187.47,342.15c0,.49-.15.87-.27.86s-.19-.4-.16-.88.15-.87.27-.86S187.5,341.67,187.47,342.15Z" transform="translate(-124.7 -284)"/><path class="cls-2" d="M193.09,348a2.83,2.83,0,0,1-.8-.22,4.65,4.65,0,0,1-1.19-.79c-1.38-1.27-2.3,0-2.3,0h0s-.92-1.22-2.3,0a4.33,4.33,0,0,1-1.19.79,2.39,2.39,0,0,1-.83.22h0c.22,0,.58.4.72.51a11.17,11.17,0,0,0,1.52,1.31,6.36,6.36,0,0,0,4.16,0,11.9,11.9,0,0,0,1.53-1.31,2.55,2.55,0,0,1,.68-.5S193.1,348,193.09,348Zm-6,.73c0,.05-.08.08-.16.07s-.13-.07-.12-.13.08-.08.16-.07S187.09,348.64,187.08,348.7Zm.63.38c0,.1-.15.15-.29.13s-.24-.13-.22-.23.14-.15.29-.12S187.73,349,187.71,349.08Zm1.89-.31a3.21,3.21,0,0,1-.81.15,3.06,3.06,0,0,1-.81-.15c-.11,0-.87-.47-.89-.46l.63-.37a.36.36,0,0,1,.36,0,1.49,1.49,0,0,0,1.42,0,.36.36,0,0,1,.36,0l.63.37S189.71,348.73,189.6,348.77Z" transform="translate(-124.7 -284)"/><path class="cls-5" d="M164.62,336.84s0,.28,0,.81c0,.27,0,.59.08,1l.06.6,0,.32.06.35c.08.48.14,1,.27,1.56l.09.43c0,.14.06.29.1.44.07.3.15.6.23.92a29.8,29.8,0,0,0,1.48,4.09,31.38,31.38,0,0,0,2.46,4.43l.38.55.4.56.41.55.22.27.22.27.44.55.46.53.24.27.11.14.13.13.52.57c1.37,1.5,2.89,3.11,4.31,5,.18.24.36.47.53.72l.25.37.26.38c.17.25.33.52.49.78s.16.27.23.41.16.27.23.41a15.58,15.58,0,0,1,1.44,3.67,12.34,12.34,0,0,1,.33,2c0,.35.06.69.05,1,0,.17,0,.34,0,.51l0,.52a13.66,13.66,0,0,1-.9,3.88l-.18.45-.05.12s0,.1,0,.07v0l0,.05-.09.18-.08.19-.12.24c-.08.16-.17.33-.25.47a12.24,12.24,0,0,1-1.1,1.66,11.55,11.55,0,0,1-2.92,2.63,11.35,11.35,0,0,1-1.69.88,13.15,13.15,0,0,1-1.74.58,12,12,0,0,1-1.72.31,16,16,0,0,1-1.68.09,15.77,15.77,0,0,1-5.85-1.21,16.14,16.14,0,0,1-4.21-2.52,13.86,13.86,0,0,1-2.51-2.72,10.47,10.47,0,0,1-1.12-2.06l-.13-.33-.09-.24-.06-.19.13.15.17.2.23.25c.17.2.4.43.67.69s.59.53,1,.83a15.92,15.92,0,0,0,2.84,1.77,16.62,16.62,0,0,0,4,1.33,14.51,14.51,0,0,0,4.76.19,10.26,10.26,0,0,0,2.38-.6,7.7,7.7,0,0,0,1.09-.51,7.45,7.45,0,0,0,1-.65,7.76,7.76,0,0,0,1.64-1.74,8,8,0,0,0,.61-1.07l.12-.26.06-.13.07-.19.08-.19,0,0v0l0-.08.11-.32a10,10,0,0,0,.35-1.27c0-.11,0-.21,0-.32a3.06,3.06,0,0,0,.05-.32l0-.31v-.63c0-.11,0-.21,0-.32s0-.42,0-.63a9.37,9.37,0,0,0-.22-1.25,11.9,11.9,0,0,0-1-2.53,23,23,0,0,0-1.52-2.51c-1.15-1.67-2.48-3.3-3.78-5l-.47-.63-.12-.16-.12-.17-.24-.34-.47-.67-.44-.68-.21-.34-.21-.34-.38-.69c-.27-.45-.49-.92-.72-1.38a25.89,25.89,0,0,1-1.91-5.39,23.28,23.28,0,0,1-.63-4.74v-1c0-.33,0-.65.05-.95s0-.59.08-.87.07-.54.1-.79l.06-.36.07-.34.13-.62.06-.27,0-.13,0-.12.13-.42C164.53,337.11,164.62,336.84,164.62,336.84Z" transform="translate(-124.7 -284)"/><path class="cls-5" d="M179.71,309.51l-.11.51c0,.17-.1.37-.17.62s-.17.52-.29.82a14.74,14.74,0,0,1-1,2.13,17.85,17.85,0,0,1-1.75,2.53c-.35.45-.74.88-1.16,1.33l-.16.17-.08.08,0,0-.05.05-.32.32-.35.33-.36.33a25,25,0,0,1-3.3,2.45c-.3.19-.61.37-.92.55s-.63.35-1,.52l-.49.25-.49.24-1,.46-.51.22-.53.2-.26.1-.28.1-.56.18c-.72.23-1.44.43-2.14.62-1.42.37-2.77.72-4,1.17l-.45.17-.44.19-.22.09-.22.11c-.13.07-.28.13-.41.21a7.83,7.83,0,0,0-.79.47l-.19.12,0,0h0s0,0,0,0l0,0-.11.08-.2.15-.1.08-.08.06-.15.13-.07.06-.08.07c-.1.1-.21.19-.3.29a7.56,7.56,0,0,0-.54.63,6.32,6.32,0,0,0-.8,1.4,8.2,8.2,0,0,0-.57,3.05,12.56,12.56,0,0,0,.33,2.79,15.74,15.74,0,0,0,.63,2.15c.21.59.41,1.05.54,1.37l.21.48-.09-.1-.26-.29a12,12,0,0,1-.93-1.19,13.5,13.5,0,0,1-1.18-2.05,11.85,11.85,0,0,1-.95-3,9.27,9.27,0,0,1-.13-1.86,8.64,8.64,0,0,1,.29-2,8,8,0,0,1,.88-2.05,7.36,7.36,0,0,1,.66-.95c.12-.15.25-.29.38-.44l.1-.11.11-.11.22-.22.12-.11.09-.08.2-.17.09-.09,0,0,.06-.05.06,0,.23-.18c.31-.24.64-.45,1-.66a5,5,0,0,1,.5-.29l.26-.15.26-.13.53-.25.53-.23c.72-.28,1.44-.54,2.16-.75l2.13-.6c.7-.18,1.38-.36,2-.56.17,0,.31-.1.47-.15l.24-.07.25-.08.48-.17.48-.18.95-.39L167,320l.46-.2c.62-.28,1.21-.57,1.79-.86a31.15,31.15,0,0,0,3.22-1.93l.36-.25.35-.25.36-.28.33-.25q.68-.53,1.26-1.05c.21-.17.39-.35.58-.52l.53-.51c.35-.34.66-.67.95-1a20.75,20.75,0,0,0,1.42-1.75c.1-.13.18-.25.26-.37l.22-.32.34-.53Z" transform="translate(-124.7 -284)"/><path class="cls-2" d="M177,317.52l0,.41a8.42,8.42,0,0,1-.24,1.14,11.44,11.44,0,0,1-.64,1.72,13.78,13.78,0,0,1-1.19,2.08c-.25.37-.53.73-.83,1.1l-.11.14-.06.07,0,0h0l0,0v0l-.23.26-.25.27a3.63,3.63,0,0,1-.27.28,18.48,18.48,0,0,1-2.42,2.09,22.09,22.09,0,0,1-2.91,1.77l-.39.19-.4.18-.19.09-.22.09-.43.17c-.55.22-1.1.4-1.63.58-1.07.34-2.08.66-3,1l-.33.15-.32.15-.16.08-.15.09-.31.16c-.19.13-.38.24-.56.37l-.13.1,0,0h0s0,0,0,0h0l-.08.07-.15.12-.08.06,0,.05-.1.09,0,.05-.06.05-.21.22a5.45,5.45,0,0,0-.37.47,4.64,4.64,0,0,0-.55,1,6.12,6.12,0,0,0-.35,2.27,9.66,9.66,0,0,0,.3,2.1,13.5,13.5,0,0,0,.51,1.64c.17.45.33.81.43,1.05l.17.37-.08-.07-.23-.2c-.19-.19-.47-.46-.8-.85a9.47,9.47,0,0,1-1.06-1.51,8.94,8.94,0,0,1-.93-2.28,8.13,8.13,0,0,1-.22-1.46,7,7,0,0,1,.12-1.63,6.24,6.24,0,0,1,.59-1.68,5.4,5.4,0,0,1,.47-.8c.09-.13.19-.25.29-.37l.07-.09.08-.1.17-.19.09-.09.07-.08.14-.14.07-.07h0l.05-.05,0,0,.18-.15c.23-.21.48-.39.73-.58a11.5,11.5,0,0,1,1.59-.92,25.39,25.39,0,0,1,3.26-1.24c.53-.18,1-.34,1.53-.52l.35-.13.17-.06.19-.08.35-.14.36-.16a30,30,0,0,0,2.72-1.37,25.05,25.05,0,0,0,2.38-1.55l.26-.2.26-.2.52-.42c.33-.28.64-.56.93-.83a20.1,20.1,0,0,0,1.53-1.59,13.58,13.58,0,0,0,1.06-1.36l.2-.28.17-.25c.09-.16.18-.3.25-.41Z" transform="translate(-124.7 -284)"/><path class="cls-5" d="M169.33,330.62l-.39.22c-.13.06-.28.16-.46.26l-.59.38a11.47,11.47,0,0,0-1.45,1.15,10.18,10.18,0,0,0-1.48,1.76c-.12.17-.22.36-.34.54s-.1.19-.16.28l-.15.3a13.26,13.26,0,0,0-.54,1.26c-.15.44-.29.9-.41,1.38s-.2,1-.27,1.5a18.61,18.61,0,0,0-.14,3.19c0,.55.07,1.1.13,1.66l0,.2v.2l.07.45c0,.16,0,.28.07.43l.07.41c.2,1.16.43,2.36.61,3.58a23.12,23.12,0,0,1,.28,3.72,12.73,12.73,0,0,1-.15,1.86c-.06.31-.11.61-.18.9l-.12.44-.06.22,0,0,0,.05v0l0,.09a7.79,7.79,0,0,1-1.78,2.88,7.68,7.68,0,0,1-1.13,1,6.35,6.35,0,0,1-1.16.64,5,5,0,0,1-2.07.42,3.87,3.87,0,0,1-1.29-.24,3.33,3.33,0,0,1-.32-.13l-.1-.05h.44a4.56,4.56,0,0,0,1.17-.23,4.87,4.87,0,0,0,1.52-.87,6.52,6.52,0,0,0,1.43-1.69,7.14,7.14,0,0,0,.54-1.11c.07-.19.14-.39.2-.6s0-.21.07-.3l.06-.33,0-.09v0s0,0,0,0h0v0l0-.18,0-.34c0-.12,0-.24,0-.36s0-.23,0-.35v-.37c0-.12,0-.25,0-.37s0-.51-.06-.77a29.91,29.91,0,0,0-.51-3.26c-.23-1.14-.49-2.32-.71-3.57l-.07-.48a4.28,4.28,0,0,1-.07-.48l-.06-.45,0-.11v-.15l0-.24a18.35,18.35,0,0,1-.08-2,16.47,16.47,0,0,1,.47-3.8,15.73,15.73,0,0,1,.56-1.76c.12-.28.22-.56.36-.83s.12-.27.19-.4l.21-.38a10.52,10.52,0,0,1,2-2.57,9.75,9.75,0,0,1,2.21-1.57,8.91,8.91,0,0,1,1.91-.7l.39-.09.34-.06.29,0,.25,0Z" transform="translate(-124.7 -284)"/><path class="cls-5" d="M172.05,377.18a7.68,7.68,0,0,1-9-12.27,7.67,7.67,0,0,0,7.83,13.19,7.3,7.3,0,0,0,1.57-1.15Z" transform="translate(-124.7 -284)"/><path class="cls-5" d="M159.68,357.58a4.49,4.49,0,0,1-8.55-2.48,4.49,4.49,0,0,0,8.33,3.33,4.37,4.37,0,0,0,.32-1.09A2.44,2.44,0,0,1,159.68,357.58Z" transform="translate(-124.7 -284)"/><path class="cls-6" d="M167.07,313.77c1.22-3,5.37-6.29,10.86-8.32a22.88,22.88,0,0,1,11.22-1.51l-.12-5.56-4.68,3.7-1.24-4.88-2.75,4.07-3.64-5,.51,6.18-4.73-1.3,2.23,4.52-6,.23,1.66,2q-.57.44-1.08.87l-3.68-4.43,6.88-.06-2.87-5.58,6.1,1.72-.68-8.57,5.05,7,3.52-5.27,1.45,6.11,5.26-4.43.13,9.06h0l0,1.5c-2.95-1.27-8-1-13.27.93C172.53,308.44,168.79,311.14,167.07,313.77Z" transform="translate(-124.7 -284)"/><path class="cls-7" d="M181.13,306.75a16.78,16.78,0,0,1,8.87.17,25.31,25.31,0,0,0-9.38.39,28.77,28.77,0,0,0-5.69,1.85A19.67,19.67,0,0,1,181.13,306.75Z" transform="translate(-124.7 -284)"/></svg>